<svg width="360" height="375" viewBox="0 0 360 375" fill="none" xmlns="http://www.w3.org/2000/svg">
<path d="M170.362 9.37077C171.916 -1.25504 186.845 -2.29349 189.855 8.01474L201.439 47.6719C203.641 55.2132 213.28 57.3859 218.505 51.5189L243.651 23.2828C250.952 15.0842 264.217 22.9358 260.542 33.281L240.435 89.8817C237.474 98.2152 246.383 105.79 254.132 101.529L265.444 95.308C274.684 90.2264 283.165 103.073 274.861 109.573C268.571 114.496 271.837 124.588 279.818 124.893L349.629 127.558C360.697 127.981 362.971 143.412 352.496 147.009L292.702 167.542C283.699 170.634 283.699 183.366 292.702 186.458L327.087 198.266C338.227 202.091 334.743 218.671 323.005 217.689L284.576 214.474C275.185 213.688 270.02 225.14 276.824 231.659L303.414 257.135C311.86 265.227 301.926 278.755 291.677 273.118L253.886 252.336C245.974 247.985 236.804 255.518 239.536 264.124L270.502 361.661C274.137 373.112 258.191 380.069 252.269 369.616L202.871 282.402C197.986 273.779 184.882 276.75 184.193 286.637L183.441 297.453C182.609 309.397 165.303 310.054 163.57 298.206L160.968 280.418C159.665 271.517 148.19 268.727 142.947 276.037L117.57 311.42C110.82 320.831 96.1437 313.157 100.021 302.244L114.195 262.344C116.935 254.631 108.69 247.619 101.517 251.564L97.1085 253.988C87.8484 259.081 79.4217 246.115 87.8357 239.721C94.3415 234.776 90.8451 224.397 82.6738 224.397H10.727C-0.565289 224.397 -3.20097 208.607 7.47912 204.939L61.2976 186.458C70.3005 183.366 70.3006 170.634 61.2976 167.542L26.9125 155.734C15.7723 151.909 19.2563 135.329 30.9941 136.311L69.4231 139.526C78.8141 140.312 83.9797 128.86 77.1751 122.341L62.8164 108.583C55.1997 101.286 64.7328 89.2769 73.568 95.0395C79.6909 99.033 87.707 94.1362 86.949 86.8655L80.2499 22.6093C79.1861 12.4055 92.3428 7.40759 98.322 15.7441L142.947 77.9628C148.19 85.2728 159.665 82.4833 160.968 73.5822L170.362 9.37077Z" fill="#F7F7F7" fill-opacity="0.7"/>
</svg>
